<?xml version="1.0" encoding="UTF-8"?>
<svg width="1058px" height="1472px" viewBox="0 0 1058 1472" version="1.1" xmlns="http://www.w3.org/2000/svg" xmlns:xlink="http://www.w3.org/1999/xlink">
    <!-- Generator: sketchtool 52.5 (67469) - http://www.bohemiancoding.com/sketch -->
    <title>A8CE32EB-FBEE-445E-AD6C-62ABD533EF98</title>
    <desc>Created with sketchtool.</desc>
    <defs>
        <path d="M110.23042,344.748263 C91.2687484,367.200057 72.2633489,392.997442 53.2142216,422.140418 L0,398 C19.8654891,298.448907 55.3613517,226.239266 106.487588,181.371077 C122.136683,167.637492 137.923989,155.28531 153.849506,144.314533 C199.316568,57.1877092 275.805987,0 362.5,0 C454.335007,0 534.71926,64.1713257 578.90753,160.124676 C587.528359,166.795557 596.108042,173.87769 604.646579,181.371077 C655.772815,226.239266 691.268677,298.448907 711.134166,398 L657.919945,422.140418 C643.240068,399.681893 628.58616,379.21023 613.958221,360.725427 C602.296305,529.089309 494.167247,661 362.5,661 C226.695206,661 115.931186,520.668655 110.23042,344.748263 Z" id="path-1"></path>
        <linearGradient x1="50%" y1="19.3522974%" x2="50%" y2="100%" id="linearGradient-3">
            <stop stop-color="#FFE4A0" offset="0%"></stop>
            <stop stop-color="#C29529" offset="100%"></stop>
        </linearGradient>
    </defs>
    <g id="mock" stroke="none" stroke-width="1" fill="none" fill-rule="evenodd">
        <g id="lion" transform="translate(-267.000000, -49.000000)">
            <g id="Group-2" transform="translate(139.000000, -60.000000)">
                <path d="M560.291909,1041 C506.215264,1056.3792 453.613824,1086.50289 402.487588,1131.37108 C351.361352,1176.23927 315.865489,1248.44891 296,1348 C292.120198,1375.60544 296.311502,1392.34014 308.573913,1398.20408 C320.836325,1404.06803 334.383094,1395.38014 349.214222,1372.14042 C386.485976,1315.11892 423.590327,1270.90544 460.527274,1239.5 C497.464221,1208.09456 539.999852,1184.59456 588.134166,1169 L560.291909,1041 Z" id="Path-28" fill="#FFE4A0"></path>
                <path d="M981.291909,1041 C927.215264,1056.3792 874.613824,1086.50289 823.487588,1131.37108 C772.361352,1176.23927 736.865489,1248.44891 717,1348 C713.120198,1375.60544 717.311502,1392.34014 729.573913,1398.20408 C741.836325,1404.06803 755.383094,1395.38014 770.214222,1372.14042 C807.485976,1315.11892 844.590327,1270.90544 881.527274,1239.5 C918.464221,1208.09456 960.999852,1184.59456 1009.13417,1169 L981.291909,1041 Z" id="Path-28" fill="#FFE4A0" transform="translate(862.367696, 1220.488163) scale(-1, 1) translate(-862.367696, -1220.488163) "></path>
                <g id="Combined-Shape" transform="translate(296.000000, 920.000000)">
                    <mask id="mask-2" fill="white">
                        <use xlink:href="#path-1"></use>
                    </mask>
                    <use id="Mask" fill="#FF505A" xlink:href="#path-1"></use>
                    <path d="M404.802849,336.852831 C409.516507,355.262855 417.990733,377.133355 430.225528,402.464329 C340.796718,395.774564 243.457638,358.65714 138.208288,291.112055 C136.66913,290.124281 135.139805,289.131637 133.620261,288.134256 C131.193403,299.323268 129.946984,313.527533 129.881003,330.747051 C84.0826738,304.008209 41.96787,259.046093 3.5365918,195.860704 C1.39008949,192.33161 -0.661751204,188.801947 -2.62245848,185.274867 C-7.76904207,194.970191 -12.703423,207.4361 -17.4256012,222.672596 C-53.4050806,183.711979 -80.5340174,128.401317 -98.8124114,56.7406097 C-102.596728,41.9041421 -105.134885,27.4404853 -106.645672,13.4506219 C-107.319951,11.3835365 -107.973311,9.31607821 -108.605561,7.24856547 C-116.813497,13.7153091 -125.850477,22.385297 -135.716494,33.2585429 C-151.859508,-17.2573527 -153.071378,-78.8510204 -139.352106,-151.52246 C-136.130525,-168.58728 -131.658757,-184.539965 -126.288382,-199.38189 C-135.99426,-196.274906 -147.143116,-191.543816 -159.734953,-185.188611 C-156.702477,-238.134401 -135.760659,-296.071339 -96.9095,-358.999426 C-93.2101963,-364.99127 -89.3845195,-370.738737 -85.4543199,-376.250312 C-84.7497668,-378.033443 -84.0317153,-379.813816 -83.299907,-381.59144 C-100.608407,-379.040048 -128.108516,-358.397563 -165.800239,-319.663973 C-138.908295,-385.872404 -115.169789,-430.660832 -94.5847211,-454.029259 C-68.5610016,-483.571711 1.28642821,-538.202963 44.2296075,-554.648731 C28.648953,-561.011422 -0.401388714,-559.021802 -42.9214177,-548.67987 C-4.09536307,-588.266978 34.8104859,-615.97415 73.7961293,-631.801388 C117.648616,-649.604448 180.862772,-659.899686 223.190984,-656.784103 C223.627408,-656.893212 224.063993,-657.001357 224.500745,-657.108546 C219.302482,-669.827595 204.968108,-685.100963 181.497623,-702.928651 C230.414334,-723.412986 291.667998,-729.988488 365.258614,-722.655154 C454.821581,-713.73017 517.551093,-668.746921 549.371949,-636.483096 C553.938912,-634.725702 558.488253,-632.882338 563.018809,-630.949755 C615.618619,-631.748567 660.83714,-624.225624 698.674374,-608.380925 C680.523072,-594.593577 667.836048,-582.333959 660.613303,-571.602072 C661.297015,-571.04003 661.979995,-570.474964 662.662237,-569.906858 C676.549732,-566.308372 689.817466,-562.044792 701.670635,-557.23269 C740.656278,-541.405452 779.562127,-513.698279 818.388182,-474.111171 C796.842337,-479.351659 778.755069,-482.447544 764.126378,-483.398828 C775.152319,-473.754702 784.521999,-464.691584 791.095504,-457.229259 C811.680572,-433.860832 835.419078,-389.072404 862.311022,-322.863973 C838.405191,-347.430605 818.599122,-364.71976 802.892815,-374.731438 C809.485613,-366.240897 815.838042,-357.140157 821.856032,-347.392686 C860.707191,-284.464599 881.649009,-226.527661 884.681485,-173.581871 C864.354078,-183.841283 847.787176,-189.868141 834.980781,-191.662445 C843.356814,-172.221097 850.259592,-150.63037 854.742059,-126.886595 C868.461332,-54.2151554 867.249461,7.37851235 851.106447,57.8944079 C836.566378,41.8699329 823.826933,30.6308172 812.888112,24.1770609 C811.351714,35.1245903 809.175033,46.3399114 806.25785,57.7767668 C787.979456,129.437474 760.85052,184.748136 724.87104,223.708753 C719.45297,206.226906 713.755546,192.392398 707.778768,182.205228 C706.509549,183.529931 705.23186,184.849422 703.945779,186.163575 C701.368565,190.955762 698.625245,195.754818 695.706953,200.552822 C657.275674,263.738212 615.160871,308.700328 569.362541,335.439169 C569.288343,316.074926 567.721341,300.523823 564.661536,288.78586 C553.94858,325.040816 534.577831,368.395545 506.549289,418.850049 C461.272222,387.358935 427.356742,360.026529 404.802849,336.852831 Z" fill="#D53C45" opacity="0.77625093" mask="url(#mask-2)" transform="translate(359.440623, -153.352470) rotate(-345.000000) translate(-359.440623, 153.352470) "></path>
                </g>
                <ellipse id="Oval" fill="#73C91E" cx="658.5" cy="710.5" rx="390.5" ry="351.5"></ellipse>
                <path d="M700.802849,1178.85283 C705.516507,1197.26286 713.990733,1219.13335 726.225528,1244.46433 C636.796718,1237.77456 539.457638,1200.65714 434.208288,1133.11206 C432.66913,1132.12428 431.139805,1131.13164 429.620261,1130.13426 C427.193403,1141.32327 425.946984,1155.52753 425.881003,1172.74705 C380.082674,1146.00821 337.96787,1101.04609 299.536592,1037.8607 C297.390089,1034.33161 295.338249,1030.80195 293.377542,1027.27487 C288.230958,1036.97019 283.296577,1049.4361 278.574399,1064.6726 C242.594919,1025.71198 215.465983,970.401317 197.187589,898.74061 C193.403272,883.904142 190.865115,869.440485 189.354328,855.450622 C188.680049,853.383537 188.026689,851.316078 187.394439,849.248565 C179.186503,855.715309 170.149523,864.385297 160.283506,875.258543 C144.140492,824.742647 142.928622,763.14898 156.647894,690.47754 C159.869475,673.41272 164.341243,657.460035 169.711618,642.61811 C160.00574,645.725094 148.856884,650.456184 136.265047,656.811389 C139.297523,603.865599 160.239341,545.928661 199.0905,483.000574 C202.789804,477.00873 206.615481,471.261263 210.54568,465.749688 C211.250233,463.966557 211.968285,462.186184 212.700093,460.40856 C195.391593,462.959952 167.891484,483.602437 130.199761,522.336027 C157.091705,456.127596 180.830211,411.339168 201.415279,387.970741 C227.438998,358.428289 297.286428,303.797037 340.229608,287.351269 C324.648953,280.988578 295.598611,282.978198 253.078582,293.32013 C291.904637,253.733022 330.810486,226.02585 369.796129,210.198612 C413.648616,192.395552 476.862772,182.100314 519.190984,185.215897 C519.627408,185.106788 520.063993,184.998643 520.500745,184.891454 C515.302482,172.172405 500.968108,156.899037 477.497623,139.071349 C526.414334,118.587014 587.667998,112.011512 661.258614,119.344846 C750.821581,128.26983 813.551093,173.253079 845.371949,205.516904 C849.938912,207.274298 854.488253,209.117662 859.018809,211.050245 C911.618619,210.251433 956.83714,217.774376 994.674374,233.619075 C976.523072,247.406423 963.836048,259.666041 956.613303,270.397928 C957.297015,270.95997 957.979995,271.525036 958.662237,272.093142 C972.549732,275.691628 985.817466,279.955208 997.670635,284.76731 C1036.65628,300.594548 1075.56213,328.301721 1114.38818,367.888829 C1092.84234,362.648341 1074.75507,359.552456 1060.12638,358.601172 C1071.15232,368.245298 1080.522,377.308416 1087.0955,384.770741 C1107.68057,408.139168 1131.41908,452.927596 1158.31102,519.136027 C1134.40519,494.569395 1114.59912,477.28024 1098.89282,467.268562 C1105.48561,475.759103 1111.83804,484.859843 1117.85603,494.607314 C1156.70719,557.535401 1177.64901,615.472339 1180.68148,668.418129 C1160.35408,658.158717 1143.78718,652.131859 1130.98078,650.337555 C1139.35681,669.778903 1146.25959,691.36963 1150.74206,715.113405 C1164.46133,787.784845 1163.24946,849.378512 1147.10645,899.894408 C1132.56638,883.869933 1119.82693,872.630817 1108.88811,866.177061 C1107.35171,877.12459 1105.17503,888.339911 1102.25785,899.776767 C1083.97946,971.437474 1056.85052,1026.74814 1020.87104,1065.70875 C1015.45297,1048.22691 1009.75555,1034.3924 1003.77877,1024.20523 C1002.50955,1025.52993 1001.23186,1026.84942 999.945779,1028.16357 C997.368565,1032.95576 994.625245,1037.75482 991.706953,1042.55282 C953.275674,1105.73821 911.160871,1150.70033 865.362541,1177.43917 C865.288343,1158.07493 863.721341,1142.52382 860.661536,1130.78586 C849.94858,1167.04082 830.577831,1210.39555 802.549289,1260.85005 C757.272222,1229.35893 723.356742,1202.02653 700.802849,1178.85283 Z" id="Combined-Shape" fill="#FF505A" transform="translate(655.440623, 688.647530) rotate(-345.000000) translate(-655.440623, -688.647530) "></path>
                <path d="M403,501 L937,501 C985.048773,501 1024,539.951227 1024,588 L1024,879 C1024,927.048773 985.048773,966 937,966 L390,966 C341.951227,966 303,927.048773 303,879 L303,601 C303,545.771525 347.771525,501 403,501 Z" id="Rectangle" fill="#FFE4A0"></path>
                <ellipse id="Oval" fill="#FF8E94" cx="545" cy="950.5" rx="94" ry="48.5"></ellipse>
                <ellipse id="Oval" fill="#FF8E94" cx="776" cy="950.5" rx="94" ry="48.5"></ellipse>
                <path d="M534,556 L793.453407,556 L764.653961,948.321086 C760.818584,1000.56859 717.310401,1041 664.922312,1041 L656.029629,1041 C603.004199,1041 559.197616,999.61107 556.190558,946.670973 L534,556 Z" id="Rectangle" fill="url(#linearGradient-3)"></path>
                <path d="M623.048034,541.262837 C606.153322,539.101216 589.070655,539.101216 571.800031,541.262837 C554.529407,543.424458 526.832481,564.093781 488.709251,603.270806 C515.601195,537.062376 539.339701,492.273948 559.924768,468.905521 C590.80237,433.852881 683.376045,363.479626 719.501239,363.479626 C743.584702,363.479626 711.433634,422.740696 623.048034,541.262837 Z" id="Path-26" fill="#FF505A" transform="translate(607.973063, 483.375216) rotate(-87.000000) translate(-607.973063, -483.375216) "></path>
                <path d="M543.269875,468.240523 C522.701877,463.137746 503.782566,461.667168 486.511942,463.828789 C469.241319,465.990411 443.381035,488.130312 408.931092,530.248493 C417.86602,454.109943 432.626018,404.356455 453.211086,380.988028 C484.088688,345.935388 603.597886,290.457312 639.723081,290.457312 C663.806543,290.457312 631.655475,349.718382 543.269875,468.240523 Z" id="Path-26" fill="#FF505A" transform="translate(528.194904, 410.352902) rotate(-61.000000) translate(-528.194904, -410.352902) "></path>
                <ellipse id="Oval" fill="#000000" cx="432.624506" cy="703.6" rx="49.6245059" ry="49.6"></ellipse>
                <ellipse id="Oval" fill="#FFFFFF" cx="408.604743" cy="694.6" rx="9.60474308" ry="9.6"></ellipse>
                <path d="M884.624506,753.146856 C912.031364,753.146856 934.249012,730.94018 934.249012,703.546856 C934.249012,693.665388 931.357988,684.45882 926.375232,676.72605 C905.094917,675.829519 862.747273,675.601097 842.709734,676.982356 C835.882861,683.433088 835,693.774334 835,703.546856 C835,730.94018 857.217648,753.146856 884.624506,753.146856 Z" id="Oval" fill="#000000"></path>
                <ellipse id="Oval" fill="#FFFFFF" cx="860.604743" cy="694.6" rx="9.60474308" ry="9.6"></ellipse>
                <path d="M844,676.053144 L938,676.087596" id="Line-4" stroke="#000000" stroke-width="10" stroke-linecap="square"></path>
                <ellipse id="Oval" fill="#59461A" cx="638" cy="999" rx="7" ry="14"></ellipse>
                <ellipse id="Oval" fill="#59461A" cx="679.5" cy="989.5" rx="11.5" ry="23.5"></ellipse>
            </g>
        </g>
    </g>
</svg>