<?xml version="1.0" encoding="UTF-8"?>
<svg width="82px" height="88px" viewBox="0 0 82 88" version="1.1" xmlns="http://www.w3.org/2000/svg" xmlns:xlink="http://www.w3.org/1999/xlink">
    <!-- Generator: Sketch 53.2 (72643) - https://sketchapp.com -->
    <title>Combined Shape</title>
    <desc>Created with Sketch.</desc>
    <g id="LOGO" stroke="none" stroke-width="1" fill="none" fill-rule="evenodd">
        <g id="logo-sample" transform="translate(-300.000000, -488.000000)" fill="#FF505A">
            <g id="Group-2" transform="translate(158.000000, 368.000000)">
                <path d="M187.372988,133.94777 C205.469499,135.959446 219.555434,151.664878 219.555434,170.741107 C219.555434,173.673672 219.700588,176.692961 219.768205,179.671221 C222.391427,182.513017 224,186.348269 224,190.568456 C224,199.32873 217.068731,206.430335 208.518577,206.430335 C206.767466,206.430335 205.084259,206.132459 203.514592,205.583464 C196.855861,207.39319 189.110355,208 183.432114,208 C177.873888,208 170.896915,206.923368 164.711945,204.806945 C162.65171,205.84643 160.33312,206.430335 157.881423,206.430335 C149.331269,206.430335 142.4,199.32873 142.4,190.568456 C142.4,186.031623 144.259015,181.939657 147.239151,179.048586 C147.227141,176.33203 147.308793,173.540327 147.308793,170.741107 C147.308793,154.480758 157.543145,140.669513 171.772023,135.700542 C169.501064,132.762901 168.09616,127.934068 167.557312,121.214042 C171.183629,122.1668 174.146234,123.487454 176.445127,125.176003 C177.198972,123.59237 178.178175,121.867014 179.382733,119.999936 C184.640935,122.883926 187.438977,126.093578 187.776858,129.628893 C187.910517,131.027398 187.775894,132.467023 187.372988,133.94777 Z M210.123241,195.484724 C210.891902,192.161343 206.464135,181.83343 204.411198,182.626998 C202.176179,183.490951 196.803523,177.788861 193.593677,173.55549 C193.096254,172.899454 192.511278,172.291656 191.838751,171.732097 C189.577296,168.860389 186.114225,167.023479 182.232411,167.023479 C178.168614,167.023479 174.563743,169.036658 172.316017,172.142722 C171.837735,172.584964 171.409866,173.055019 171.03241,173.552887 C167.822564,177.786705 162.449908,183.489398 160.214889,182.625354 C158.161969,181.831708 153.734258,192.160539 154.502828,195.484359 C154.327547,196.755965 154.399357,197.773318 154.83529,198.256201 C156.105434,199.663142 165.264686,200.319554 182.313043,200.225438 C199.361401,200.319544 208.520653,199.663202 209.790797,198.256411 C210.226746,197.773561 210.298545,196.75626 210.123241,195.484724 Z M208.518577,171.649861 C211.279564,171.649861 213.517787,169.356634 213.517787,166.527795 C213.517787,163.698957 211.279564,161.40573 208.518577,161.40573 C205.75759,161.40573 203.519368,163.698957 203.519368,166.527795 C203.519368,169.356634 205.75759,171.649861 208.518577,171.649861 Z M206.018972,166.693023 C205.484588,166.693023 205.051383,166.249173 205.051383,165.701656 C205.051383,165.154139 205.484588,164.710288 206.018972,164.710288 C206.553357,164.710288 206.986561,165.154139 206.986561,165.701656 C206.986561,166.249173 206.553357,166.693023 206.018972,166.693023 Z M175.100188,178.017646 C174.726606,177.940665 174.941097,176.996882 175.579267,175.909648 C176.217437,174.822415 177.037625,174.003444 177.411207,174.080425 C177.78479,174.157407 177.570299,175.10119 176.932129,176.188423 C176.293958,177.275657 175.473771,178.094628 175.100188,178.017646 Z M188.973667,177.980963 C188.600085,178.057945 187.779897,177.238974 187.141727,176.15174 C186.503556,175.064507 186.289066,174.120724 186.662648,174.043742 C187.036231,173.96676 187.856418,174.785731 188.494588,175.872965 C189.132759,176.960199 189.34725,177.903981 188.973667,177.980963 Z" id="Combined-Shape"></path>
            </g>
        </g>
    </g>
</svg>